<svg xmlns="http://www.w3.org/2000/svg" viewBox="0 0 64 64" width="100" height="100">
  <title>Bulb On</title>
  <defs>
    <filter id="neonGlow" x="-50%" y="-50%" width="200%" height="200%">
      <feDropShadow dx="0" dy="0" stdDeviation="3" flood-color="#00ffe0"/>
    </filter>
  </defs>
  <g stroke="#00ffe0" stroke-width="2" fill="none" filter="url(#neonGlow)">
    <!-- Bulb shape -->
    <path d="M32 12c-8 0-14 6-14 14 0 5 3 9 7 12v6h14v-6c4-3 7-7 7-12 0-8-6-14-14-14z" fill="#00ffe0"/>
    <rect x="25" y="44" width="14" height="6" rx="2" fill="#00ccaa"/>
    <rect x="27" y="50" width="10" height="4" rx="1" fill="#009988"/>

    <!-- Light rays (positioned outside bulb) -->
    <line x1="32" y1="0" x2="32" y2="8"/>
    <line x1="4" y1="32" x2="12" y2="32"/>
    <line x1="52" y1="32" x2="60" y2="32"/>
    <line x1="48" y1="16" x2="54" y2="10"/>
    <line x1="16" y1="16" x2="10" y2="10"/>
    <line x1="48" y1="48" x2="54" y2="54"/>
    <line x1="16" y1="48" x2="10" y2="54"/>
  </g>
</svg>
