<?xml version="1.0" encoding="UTF-8"?>
<svg width="64" height="64" viewBox="0 0 64 64" fill="none" xmlns="http://www.w3.org/2000/svg">
  <g opacity="0.5">  <!--Dimmed for "off" state-->
    <path d="M32 58C36.4183 58 40 54.4183 40 50H24C24 54.4183 27.5817 58 32 58Z" fill="#666666"/>  <!--Base-->
    <path d="M42 34C42 22.9543 33.0457 14 22 14C22 14 19.5 27 32 34C32 34 44.7143 27.6364 42 34Z" fill="#AAAAAA"/> <!--Bulb Glass-->
    <path d="M32 62C20.9543 62 12 53.0457 12 42H16C16 50.8366 23.1634 58 32 58C40.8366 58 48 50.8366 48 42H52C52 53.0457 43.0457 62 32 62Z" fill="#999999"/>  <!--Bottom of Bulb-->
  </g>
  <path d="M32 62C20.9543 62 12 53.0457 12 42H16C16 50.8366 23.1634 58 32 58C40.8366 58 48 50.8366 48 42H52C52 53.0457 43.0457 62 32 62Z" fill="#999999"/>
</svg>